<svg width="100%" height="100%" viewBox="0 0 253 548" version="1.1" xmlns="http://www.w3.org/2000/svg" xmlns:xlink="http://www.w3.org/1999/xlink" xml:space="preserve" xmlns:serif="http://www.serif.com/" style="fill-rule:evenodd;clip-rule:evenodd;stroke-linecap:round;stroke-linejoin:round;stroke-miterlimit:1.5;">
    <g transform="matrix(1,0,0,1,-907.463,-638.447)">
        <g transform="matrix(0.400549,0.107327,-0.107327,0.400549,885.003,363.626)">
            <path d="M735.739,920.423L769.718,954.401L735.739,988.38L701.761,954.401L735.739,920.423Z" style="fill:none;stroke:rgb(129,113,113);stroke-width:1.92px;"/>
        </g>
        <g transform="matrix(0.550453,0.317804,-0.317804,0.550453,990.707,302.282)">
            <path d="M735.739,920.423L769.718,954.401L735.739,988.38L701.761,954.401L735.739,920.423Z" style="fill:none;stroke:rgb(103,103,104);stroke-width:1.25px;"/>
        </g>
        <g transform="matrix(0.61395,0.164508,-0.164508,0.61395,844.162,296.719)">
            <path d="M735.739,920.423L769.718,954.401L735.739,988.38L701.761,954.401L735.739,920.423Z" style="fill:none;stroke:rgb(82,65,65);stroke-opacity:0.53;stroke-width:1.25px;"/>
        </g>
        <g transform="matrix(0.61395,0.164508,-0.164508,0.61395,777.26,256.579)">
            <path d="M735.739,920.423L769.718,954.401L735.739,988.38L701.761,954.401L735.739,920.423Z" style="fill:none;stroke:rgb(113,113,113);stroke-width:1.25px;"/>
        </g>
        <g transform="matrix(0.61395,-0.164508,0.164508,0.61395,522.403,445.127)">
            <path d="M735.739,920.423L769.718,954.401L735.739,988.38L701.761,954.401L735.739,920.423Z" style="fill:none;stroke:rgb(209,104,255);stroke-width:1.25px;"/>
        </g>
        <g transform="matrix(0.258819,0.965926,-0.965926,0.258819,1853.82,194.602)">
            <path d="M735.739,920.423L769.718,954.401L735.739,988.38L701.761,954.401L735.739,920.423Z" style="fill:none;stroke:rgb(78,69,69);stroke-width:0.79px;"/>
        </g>
        <g transform="matrix(0.586351,0.33853,-0.33853,0.586351,819.476,345.214)">
            <path d="M735.739,920.423L769.718,954.401L735.739,988.38L701.761,954.401L735.739,920.423Z" style="fill:none;stroke:rgb(77,77,77);stroke-width:1.17px;"/>
        </g>
        <g transform="matrix(0.707107,-0.707107,0.707107,0.707107,-468.53,1047.38)">
            <path d="M1007.92,1089.44L1027.46,1128.52L988.38,1128.52L1007.92,1089.44Z" style="fill:none;stroke:rgb(113,94,163);stroke-width:0.79px;"/>
        </g>
        <g transform="matrix(0.43571,0.251557,-0.251557,0.43571,966.747,-89.3837)">
            <path d="M1007.92,1089.44L1027.46,1128.52L988.38,1128.52L1007.92,1089.44Z" style="fill:none;stroke:rgb(60,60,60);stroke-opacity:0.22;stroke-width:1.58px;"/>
        </g>
        <g transform="matrix(0.43571,-0.251557,0.251557,0.43571,403.874,593.068)">
            <path d="M1007.92,1089.44L1027.46,1128.52L988.38,1128.52L1007.92,1089.44Z" style="fill:none;stroke:rgb(122,110,110);stroke-width:1.58px;"/>
        </g>
        <g transform="matrix(0.355755,0.355755,-0.355755,0.355755,1126.97,-22.6414)">
            <path d="M1007.92,1089.44L1027.46,1128.52L988.38,1128.52L1007.92,1089.44Z" style="fill:none;stroke:rgb(60,60,60);stroke-opacity:0.38;stroke-width:1.58px;"/>
        </g>
    </g>
</svg>
